<svg width="16" height="550" viewBox="0 0 16 550" fill="none" xmlns="http://www.w3.org/2000/svg">
  <g transform="translate(-654 -479)">
    <path d="M662 479C657.582 479 654 482.582 654 487C654 491.418 657.582 495 662 495C666.418 495 670 491.418 670 487C670 482.582 666.418 479 662 479ZM662 1013C657.582 1013 654 1016.58 654 1021C654 1025.42 657.582 1029 662 1029C666.418 1029 670 1025.42 670 1021C670 1016.58 666.418 1013 662 1013ZM662 487L660.5 487L660.5 1021L662 1021L663.5 1021L663.5 487L662 487Z" fill="#007BFF"/>
  </g>
</svg>
